<svg width="19" height="19" viewBox="0 0 19 19" fill="none" xmlns="http://www.w3.org/2000/svg">
<path fill-rule="evenodd" clip-rule="evenodd" d="M9.49053 0.570312C7.10381 0.570312 6.80657 0.580562 5.86799 0.624489C2.67595 0.770914 0.904215 2.54118 0.757791 5.73323C0.715328 6.67181 0.705078 6.97051 0.705078 9.35576C0.705078 11.7425 0.715328 12.0412 0.757791 12.9783C0.904215 16.1689 2.67595 17.9421 5.86799 18.0885C6.80657 18.131 7.10381 18.1412 9.49053 18.1412C11.8772 18.1412 12.1759 18.131 13.1145 18.0885C16.3007 17.9421 18.0798 16.1718 18.2233 12.9783C18.2657 12.0412 18.276 11.7425 18.276 9.35576C18.276 6.97051 18.2657 6.67181 18.2233 5.73323C18.0798 2.54557 16.3066 0.769449 13.1145 0.624489C12.1759 0.580562 11.8772 0.570312 9.49053 0.570312ZM9.48407 2.15514C11.8298 2.15514 12.108 2.16392 13.0349 2.20638C15.4172 2.31474 16.5271 3.44367 16.6369 5.80695C16.6779 6.73382 16.6867 7.01056 16.6867 9.35628C16.6867 11.702 16.6779 11.9802 16.6369 12.9056C16.5271 15.2674 15.4186 16.3993 13.0349 16.5076C12.108 16.5486 11.8312 16.5589 9.48407 16.5589C7.13835 16.5589 6.86015 16.5501 5.93475 16.5076C3.54803 16.3978 2.44253 15.2645 2.33271 12.9056C2.29171 11.9802 2.28146 11.702 2.28146 9.35628C2.28146 7.01056 2.29171 6.73236 2.33271 5.80695C2.44107 3.4422 3.55096 2.31327 5.93475 2.20492C6.86015 2.16246 7.13835 2.15514 9.48407 2.15514ZM4.97853 9.35509C4.97853 6.86296 6.99919 4.84377 9.48986 4.84377C11.9805 4.84377 14.0012 6.86442 14.0012 9.35509C14.0012 11.8472 11.9805 13.8664 9.48986 13.8664C6.99919 13.8664 4.97853 11.8472 4.97853 9.35509ZM9.49353 12.2856C7.87554 12.2856 6.56504 10.9751 6.56504 9.35707C6.56504 7.74055 7.87554 6.42859 9.49353 6.42859C11.1101 6.42859 12.4235 7.73909 12.4235 9.35707C12.4235 10.9751 11.1101 12.2856 9.49353 12.2856ZM13.1305 4.66594C13.1305 4.08317 13.6035 3.61169 14.1848 3.61169C14.769 3.61169 15.2405 4.08317 15.2405 4.66594C15.2405 5.24871 14.7675 5.7202 14.1848 5.7202C13.602 5.7202 13.1305 5.24725 13.1305 4.66594Z" fill="white"/>
</svg>
