<svg width="19" height="16" viewBox="0 0 19 16" fill="none" xmlns="http://www.w3.org/2000/svg">
<path d="M18.1441 2.45878C17.4984 2.74577 16.8029 2.93905 16.0737 3.0269C16.819 2.58031 17.3886 1.87454 17.6595 1.03261C16.9625 1.44552 16.1908 1.74569 15.3694 1.90676C14.7134 1.20539 13.7748 0.767578 12.7396 0.767578C10.4115 0.767578 8.70125 2.93905 9.22691 5.19398C6.23254 5.04316 3.57494 3.60821 1.79735 1.42795C0.852912 3.0474 1.30829 5.16762 2.9131 6.24091C2.32301 6.22188 1.76806 6.05935 1.28194 5.78993C1.2424 7.45916 2.44015 9.02151 4.17381 9.37C3.66718 9.50764 3.11077 9.53985 2.54558 9.4315C3.00388 10.8635 4.33781 11.9046 5.91333 11.9339C4.39491 13.1228 2.48701 13.6544 0.573242 13.4289C2.16927 14.4524 4.06253 15.0483 6.09783 15.0483C12.7923 15.0483 16.573 9.39489 16.3446 4.32422C17.0504 3.81759 17.6609 3.18211 18.1441 2.45878Z" fill="white"/>
</svg>
