<svg width="23" height="15" viewBox="0 0 23 15" fill="none" xmlns="http://www.w3.org/2000/svg">
<path d="M21.8568 2.34714C21.6033 1.42934 20.8602 0.705842 19.9178 0.458706C18.1962 0 11.3098 0 11.3098 0C11.3098 0 4.42365 0 2.70208 0.441315C1.77785 0.68819 1.01663 1.42947 0.763111 2.34714C0.310059 4.02348 0.310059 7.5 0.310059 7.5C0.310059 7.5 0.310059 10.994 0.763111 12.6529C1.0169 13.5705 1.75972 14.294 2.70221 14.5412C4.44178 15 11.3101 15 11.3101 15C11.3101 15 18.1962 15 19.9178 14.5587C20.8603 14.3117 21.6033 13.5882 21.857 12.6705C22.31 10.994 22.31 7.51765 22.31 7.51765C22.31 7.51765 22.3281 4.02348 21.8568 2.34714ZM9.11733 10.7117V4.28827L14.8437 7.5L9.11733 10.7117Z" fill="white"/>
</svg>
